<?xml version="1.0" standalone="no"?>
<!DOCTYPE svg PUBLIC "-//W3C//DTD SVG 20010904//EN"
 "http://www.w3.org/TR/2001/REC-SVG-20010904/DTD/svg10.dtd">
<svg version="1.0" xmlns="http://www.w3.org/2000/svg"
 width="243.000000pt" height="208.000000pt" viewBox="0 0 243.000000 208.000000"
 preserveAspectRatio="xMidYMid meet">

<g transform="translate(0.000000,208.000000) scale(0.100000,-0.100000)"
fill="#3435CE" stroke="none">
<path d="M12 2068 c-16 -16 -17 -1359 -1 -1458 25 -159 86 -277 204 -395 92
-92 191 -150 321 -186 105 -30 295 -32 399 -5 171 45 241 93 482 328 106 104
196 188 200 188 5 0 127 -119 273 -265 146 -146 269 -265 274 -265 15 0 266
253 266 268 0 24 -1311 1332 -1335 1332 -24 0 -265 -237 -265 -260 0 -8 115
-130 256 -271 l255 -256 -180 -175 c-202 -196 -259 -234 -364 -246 -174 -20
-310 48 -376 188 -26 54 -26 58 -29 332 l-4 277 154 3 153 3 3 204 c2 157 -1
206 -10 213 -7 4 -77 8 -155 8 l-143 0 -2 223 -3 222 -180 3 c-132 2 -184 -1
-193 -10z"/>
<path d="M1945 1420 l-190 -190 137 -137 137 -137 186 179 c102 98 191 187
196 198 9 16 -7 37 -117 148 -71 71 -135 129 -144 129 -8 0 -101 -86 -205
-190z"/>
<path d="M2328 1159 c-21 -12 -24 -59 -6 -77 18 -18 53 -14 74 9 17 19 17 23
3 47 -16 29 -44 38 -71 21z m62 -19 c8 -14 8 -26 0 -40 -18 -33 -70 -23 -70
14 0 45 50 63 70 26z"/>
<path d="M2341 1115 c-1 -23 2 -27 9 -15 8 12 11 13 19 1 6 -9 9 -6 9 13 0 14
-5 26 -10 26 -5 0 -6 -4 -3 -10 3 -5 2 -10 -4 -10 -5 0 -12 6 -14 13 -3 6 -6
-1 -6 -18z"/>
</g>
</svg>
